<svg width="320" height="320" viewBox="0 0 320 320" fill="none" xmlns="http://www.w3.org/2000/svg">
<g clip-path="url(#clip0_1_2)">
<path d="M131.326 266.064C131.326 277.628 120.056 283.41 97.516 283.41C92.616 283.41 89.676 280.96 88.696 276.06C87.912 270.964 87.52 263.908 87.52 254.892C87.52 235.88 91.342 212.36 98.986 184.332C111.726 138.076 125.348 110.832 139.852 102.6C141.812 101.424 143.968 100.836 146.32 100.836C148.672 100.836 149.848 104.658 149.848 112.302C149.848 119.946 149.456 126.708 148.672 132.588C147.104 144.348 144.262 159.538 140.146 178.158C136.226 196.778 134.266 207.754 134.266 211.086L131.326 266.064ZM151.318 186.978C151.318 184.43 152.69 182.764 155.434 181.98C158.374 181.196 162 180.51 166.312 179.922C170.624 179.138 175.328 178.06 180.424 176.688C185.52 175.316 190.224 172.768 194.536 169.044C204.532 160.42 209.53 146.014 209.53 125.826C209.53 112.89 205.12 102.992 196.3 96.132C187.676 89.272 175.132 85.842 158.668 85.842C142.4 85.842 127.112 89.272 112.804 96.132C107.512 98.68 102.71 101.032 98.398 103.188C94.282 105.344 90.46 106.422 86.932 106.422C83.404 106.422 81.64 105.344 81.64 103.188C81.64 99.856 84.874 94.368 91.342 86.724C97.81 79.668 108.002 73.102 121.918 67.026C136.03 60.95 150.828 57.912 166.312 57.912C195.516 57.716 218.252 64.576 234.52 78.492C248.632 90.644 255.688 106.422 255.688 125.826C255.688 145.034 248.73 162.282 234.814 177.57C220.898 192.662 203.454 200.208 182.482 200.208C161.706 200.208 151.318 195.798 151.318 186.978Z" fill="black"/>
<path d="M205.484 216.242L212.501 238.408L235.749 238.584L216.837 252.106L223.854 274.272L205.149 260.464L186.237 273.987L193.588 251.93L174.883 238.123L198.132 238.299L205.484 216.242Z" fill="black"/>
<path d="M252.899 228.836L245.322 222.712L270.29 191.825L277.866 197.949L252.899 228.836Z" fill="black"/>
<path d="M240.788 236.07L245.541 222.585L252.978 228.596L240.788 236.07Z" fill="black"/>
<path d="M282.028 192.802C280.386 194.832 277.925 195.565 276.53 194.437L274.004 192.396C272.61 191.268 272.81 188.708 274.451 186.677C276.093 184.646 278.554 183.914 279.949 185.041L282.474 187.083C283.869 188.21 283.669 190.771 282.028 192.802Z" fill="black"/>
<path d="M279.055 196.479L271.479 190.354L274.451 186.677L282.028 192.802L279.055 196.479Z" fill="black"/>
</g>
<defs>
<clipPath id="clip0_1_2">
<rect width="320" height="320" fill="white"/>
</clipPath>
</defs>
</svg>
